<mxfile host="app.diagrams.net" modified="2024-03-28T09:55:59.793Z" agent="Mozilla/5.0 (Windows NT 10.0; Win64; x64) AppleWebKit/537.36 (KHTML, like Gecko) Chrome/123.0.0.0 Safari/537.36" etag="GBiFUsExMBFwEhDC2i6p" version="24.2.0" type="device">
  <diagram name="Page-1" id="NA0gkYikjxi3Z4OoS6OF">
    <mxGraphModel dx="2261" dy="1949" grid="1" gridSize="10" guides="1" tooltips="1" connect="1" arrows="1" fold="1" page="1" pageScale="1" pageWidth="827" pageHeight="1169" math="0" shadow="0">
      <root>
        <mxCell id="0" />
        <mxCell id="1" parent="0" />
        <mxCell id="cy30mTCbPtFmEh0cFf1_-1" value="Page acceuil" style="rounded=0;whiteSpace=wrap;html=1;" vertex="1" parent="1">
          <mxGeometry x="358" y="-40" width="120" height="60" as="geometry" />
        </mxCell>
        <mxCell id="cy30mTCbPtFmEh0cFf1_-2" value="" style="endArrow=none;html=1;rounded=0;" edge="1" parent="1">
          <mxGeometry width="50" height="50" relative="1" as="geometry">
            <mxPoint x="414" y="210" as="sourcePoint" />
            <mxPoint x="414" y="150" as="targetPoint" />
          </mxGeometry>
        </mxCell>
        <mxCell id="cy30mTCbPtFmEh0cFf1_-3" value="Page de connexion&amp;nbsp;" style="rounded=0;whiteSpace=wrap;html=1;" vertex="1" parent="1">
          <mxGeometry x="354" y="90" width="120" height="60" as="geometry" />
        </mxCell>
        <mxCell id="cy30mTCbPtFmEh0cFf1_-4" value="" style="endArrow=none;html=1;rounded=0;entryX=0.5;entryY=1;entryDx=0;entryDy=0;" edge="1" parent="1" target="cy30mTCbPtFmEh0cFf1_-57">
          <mxGeometry width="50" height="50" relative="1" as="geometry">
            <mxPoint x="414" y="340" as="sourcePoint" />
            <mxPoint x="414" y="280" as="targetPoint" />
          </mxGeometry>
        </mxCell>
        <mxCell id="cy30mTCbPtFmEh0cFf1_-5" value="" style="endArrow=none;html=1;rounded=0;" edge="1" parent="1">
          <mxGeometry width="50" height="50" relative="1" as="geometry">
            <mxPoint x="-20" y="340" as="sourcePoint" />
            <mxPoint x="690" y="340" as="targetPoint" />
          </mxGeometry>
        </mxCell>
        <mxCell id="cy30mTCbPtFmEh0cFf1_-6" value="" style="endArrow=none;html=1;rounded=0;" edge="1" parent="1">
          <mxGeometry width="50" height="50" relative="1" as="geometry">
            <mxPoint x="160" y="400" as="sourcePoint" />
            <mxPoint x="160" y="340" as="targetPoint" />
          </mxGeometry>
        </mxCell>
        <mxCell id="cy30mTCbPtFmEh0cFf1_-7" value="Page réservation" style="rounded=0;whiteSpace=wrap;html=1;" vertex="1" parent="1">
          <mxGeometry x="100" y="400" width="120" height="60" as="geometry" />
        </mxCell>
        <mxCell id="cy30mTCbPtFmEh0cFf1_-8" value="" style="endArrow=none;html=1;rounded=0;" edge="1" parent="1">
          <mxGeometry width="50" height="50" relative="1" as="geometry">
            <mxPoint x="340" y="400" as="sourcePoint" />
            <mxPoint x="340" y="340" as="targetPoint" />
          </mxGeometry>
        </mxCell>
        <mxCell id="cy30mTCbPtFmEh0cFf1_-9" value="Page matériel" style="rounded=0;whiteSpace=wrap;html=1;" vertex="1" parent="1">
          <mxGeometry x="280" y="400" width="120" height="60" as="geometry" />
        </mxCell>
        <mxCell id="cy30mTCbPtFmEh0cFf1_-10" value="" style="endArrow=none;html=1;rounded=0;" edge="1" parent="1">
          <mxGeometry width="50" height="50" relative="1" as="geometry">
            <mxPoint x="510" y="400" as="sourcePoint" />
            <mxPoint x="510" y="340" as="targetPoint" />
          </mxGeometry>
        </mxCell>
        <mxCell id="cy30mTCbPtFmEh0cFf1_-11" value="Page Activité" style="rounded=0;whiteSpace=wrap;html=1;" vertex="1" parent="1">
          <mxGeometry x="450" y="400" width="120" height="60" as="geometry" />
        </mxCell>
        <mxCell id="cy30mTCbPtFmEh0cFf1_-12" value="" style="endArrow=none;html=1;rounded=0;" edge="1" parent="1">
          <mxGeometry width="50" height="50" relative="1" as="geometry">
            <mxPoint x="690" y="400" as="sourcePoint" />
            <mxPoint x="690" y="340" as="targetPoint" />
          </mxGeometry>
        </mxCell>
        <mxCell id="cy30mTCbPtFmEh0cFf1_-13" value="Page salle/classe" style="rounded=0;whiteSpace=wrap;html=1;" vertex="1" parent="1">
          <mxGeometry x="630" y="400" width="120" height="60" as="geometry" />
        </mxCell>
        <mxCell id="cy30mTCbPtFmEh0cFf1_-14" value="" style="endArrow=none;dashed=1;html=1;dashPattern=1 3;strokeWidth=2;rounded=0;" edge="1" parent="1">
          <mxGeometry width="50" height="50" relative="1" as="geometry">
            <mxPoint x="280" y="-10.5" as="sourcePoint" />
            <mxPoint x="360" y="-10.5" as="targetPoint" />
          </mxGeometry>
        </mxCell>
        <mxCell id="cy30mTCbPtFmEh0cFf1_-15" value="" style="shape=umlActor;verticalLabelPosition=bottom;verticalAlign=top;html=1;outlineConnect=0;" vertex="1" parent="1">
          <mxGeometry x="250" y="-55" width="30" height="60" as="geometry" />
        </mxCell>
        <mxCell id="cy30mTCbPtFmEh0cFf1_-16" value="" style="shape=umlActor;verticalLabelPosition=bottom;verticalAlign=top;html=1;outlineConnect=0;" vertex="1" parent="1">
          <mxGeometry x="240" y="-55" width="30" height="60" as="geometry" />
        </mxCell>
        <mxCell id="cy30mTCbPtFmEh0cFf1_-17" value="" style="shape=umlActor;verticalLabelPosition=bottom;verticalAlign=top;html=1;outlineConnect=0;" vertex="1" parent="1">
          <mxGeometry x="230" y="-55" width="30" height="60" as="geometry" />
        </mxCell>
        <mxCell id="cy30mTCbPtFmEh0cFf1_-23" value="élève/enseignant/aide labo" style="text;html=1;align=center;verticalAlign=middle;whiteSpace=wrap;rounded=0;" vertex="1" parent="1">
          <mxGeometry x="182.5" y="5" width="145" height="30" as="geometry" />
        </mxCell>
        <mxCell id="cy30mTCbPtFmEh0cFf1_-24" value="" style="shape=umlActor;verticalLabelPosition=bottom;verticalAlign=top;html=1;outlineConnect=0;" vertex="1" parent="1">
          <mxGeometry x="550" y="60" width="30" height="60" as="geometry" />
        </mxCell>
        <mxCell id="cy30mTCbPtFmEh0cFf1_-25" value="" style="endArrow=none;dashed=1;html=1;dashPattern=1 3;strokeWidth=2;rounded=0;" edge="1" parent="1">
          <mxGeometry width="50" height="50" relative="1" as="geometry">
            <mxPoint x="474" y="119.5" as="sourcePoint" />
            <mxPoint x="554" y="119.5" as="targetPoint" />
          </mxGeometry>
        </mxCell>
        <mxCell id="cy30mTCbPtFmEh0cFf1_-26" value="" style="shape=umlActor;verticalLabelPosition=bottom;verticalAlign=top;html=1;outlineConnect=0;" vertex="1" parent="1">
          <mxGeometry x="560" y="60" width="30" height="60" as="geometry" />
        </mxCell>
        <mxCell id="cy30mTCbPtFmEh0cFf1_-27" value="enseignant/aide labo" style="text;html=1;align=center;verticalAlign=middle;whiteSpace=wrap;rounded=0;" vertex="1" parent="1">
          <mxGeometry x="515" y="120" width="120" height="30" as="geometry" />
        </mxCell>
        <mxCell id="cy30mTCbPtFmEh0cFf1_-28" value="" style="endArrow=none;dashed=1;html=1;dashPattern=1 3;strokeWidth=2;rounded=0;" edge="1" parent="1">
          <mxGeometry width="50" height="50" relative="1" as="geometry">
            <mxPoint x="689.5" y="530" as="sourcePoint" />
            <mxPoint x="689.5" y="460" as="targetPoint" />
          </mxGeometry>
        </mxCell>
        <mxCell id="cy30mTCbPtFmEh0cFf1_-30" value="" style="shape=umlActor;verticalLabelPosition=bottom;verticalAlign=top;html=1;outlineConnect=0;" vertex="1" parent="1">
          <mxGeometry x="675" y="530" width="30" height="60" as="geometry" />
        </mxCell>
        <mxCell id="cy30mTCbPtFmEh0cFf1_-34" value="aide labo" style="text;html=1;align=center;verticalAlign=middle;whiteSpace=wrap;rounded=0;" vertex="1" parent="1">
          <mxGeometry x="630" y="590" width="120" height="30" as="geometry" />
        </mxCell>
        <mxCell id="cy30mTCbPtFmEh0cFf1_-35" value="" style="shape=umlActor;verticalLabelPosition=bottom;verticalAlign=top;html=1;outlineConnect=0;" vertex="1" parent="1">
          <mxGeometry x="495" y="530" width="30" height="60" as="geometry" />
        </mxCell>
        <mxCell id="cy30mTCbPtFmEh0cFf1_-36" value="" style="endArrow=none;dashed=1;html=1;dashPattern=1 3;strokeWidth=2;rounded=0;" edge="1" parent="1">
          <mxGeometry width="50" height="50" relative="1" as="geometry">
            <mxPoint x="520" y="530" as="sourcePoint" />
            <mxPoint x="520" y="460" as="targetPoint" />
          </mxGeometry>
        </mxCell>
        <mxCell id="cy30mTCbPtFmEh0cFf1_-37" value="" style="shape=umlActor;verticalLabelPosition=bottom;verticalAlign=top;html=1;outlineConnect=0;" vertex="1" parent="1">
          <mxGeometry x="510" y="530" width="30" height="60" as="geometry" />
        </mxCell>
        <mxCell id="cy30mTCbPtFmEh0cFf1_-38" value="enseignant/aide labo" style="text;html=1;align=center;verticalAlign=middle;whiteSpace=wrap;rounded=0;" vertex="1" parent="1">
          <mxGeometry x="460" y="590" width="120" height="30" as="geometry" />
        </mxCell>
        <mxCell id="cy30mTCbPtFmEh0cFf1_-39" value="" style="endArrow=none;dashed=1;html=1;dashPattern=1 3;strokeWidth=2;rounded=0;" edge="1" parent="1">
          <mxGeometry width="50" height="50" relative="1" as="geometry">
            <mxPoint x="339.5" y="530" as="sourcePoint" />
            <mxPoint x="339.5" y="460" as="targetPoint" />
          </mxGeometry>
        </mxCell>
        <mxCell id="cy30mTCbPtFmEh0cFf1_-40" value="" style="shape=umlActor;verticalLabelPosition=bottom;verticalAlign=top;html=1;outlineConnect=0;" vertex="1" parent="1">
          <mxGeometry x="320" y="530" width="30" height="60" as="geometry" />
        </mxCell>
        <mxCell id="cy30mTCbPtFmEh0cFf1_-41" value="" style="shape=umlActor;verticalLabelPosition=bottom;verticalAlign=top;html=1;outlineConnect=0;" vertex="1" parent="1">
          <mxGeometry x="328" y="530" width="30" height="60" as="geometry" />
        </mxCell>
        <mxCell id="cy30mTCbPtFmEh0cFf1_-44" value="enseignant/aide labo" style="text;html=1;align=center;verticalAlign=middle;whiteSpace=wrap;rounded=0;" vertex="1" parent="1">
          <mxGeometry x="280" y="590" width="120" height="30" as="geometry" />
        </mxCell>
        <mxCell id="cy30mTCbPtFmEh0cFf1_-45" value="" style="shape=umlActor;verticalLabelPosition=bottom;verticalAlign=top;html=1;outlineConnect=0;" vertex="1" parent="1">
          <mxGeometry x="130" y="530" width="30" height="60" as="geometry" />
        </mxCell>
        <mxCell id="cy30mTCbPtFmEh0cFf1_-46" value="" style="shape=umlActor;verticalLabelPosition=bottom;verticalAlign=top;html=1;outlineConnect=0;" vertex="1" parent="1">
          <mxGeometry x="140" y="530" width="30" height="60" as="geometry" />
        </mxCell>
        <mxCell id="cy30mTCbPtFmEh0cFf1_-47" value="" style="endArrow=none;dashed=1;html=1;dashPattern=1 3;strokeWidth=2;rounded=0;" edge="1" parent="1">
          <mxGeometry width="50" height="50" relative="1" as="geometry">
            <mxPoint x="155" y="520" as="sourcePoint" />
            <mxPoint x="154.5" y="460" as="targetPoint" />
          </mxGeometry>
        </mxCell>
        <mxCell id="cy30mTCbPtFmEh0cFf1_-48" value="enseignant/aide labo" style="text;html=1;align=center;verticalAlign=middle;whiteSpace=wrap;rounded=0;" vertex="1" parent="1">
          <mxGeometry x="95" y="590" width="120" height="30" as="geometry" />
        </mxCell>
        <mxCell id="cy30mTCbPtFmEh0cFf1_-49" value="" style="endArrow=none;html=1;rounded=0;" edge="1" parent="1">
          <mxGeometry width="50" height="50" relative="1" as="geometry">
            <mxPoint x="-20.5" y="400" as="sourcePoint" />
            <mxPoint x="-20.5" y="340" as="targetPoint" />
          </mxGeometry>
        </mxCell>
        <mxCell id="cy30mTCbPtFmEh0cFf1_-50" value="Page utilisateur&lt;div&gt;(page ajouter/supprimer)&lt;/div&gt;" style="rounded=0;whiteSpace=wrap;html=1;" vertex="1" parent="1">
          <mxGeometry x="-90" y="400" width="140" height="60" as="geometry" />
        </mxCell>
        <mxCell id="cy30mTCbPtFmEh0cFf1_-53" value="" style="endArrow=none;dashed=1;html=1;dashPattern=1 3;strokeWidth=2;rounded=0;" edge="1" parent="1">
          <mxGeometry width="50" height="50" relative="1" as="geometry">
            <mxPoint x="-20.5" y="530" as="sourcePoint" />
            <mxPoint x="-20.5" y="460" as="targetPoint" />
          </mxGeometry>
        </mxCell>
        <mxCell id="cy30mTCbPtFmEh0cFf1_-54" value="aide labo" style="shape=umlActor;verticalLabelPosition=bottom;verticalAlign=top;html=1;outlineConnect=0;" vertex="1" parent="1">
          <mxGeometry x="-40" y="530" width="30" height="60" as="geometry" />
        </mxCell>
        <mxCell id="cy30mTCbPtFmEh0cFf1_-56" value="" style="endArrow=none;html=1;rounded=0;exitX=0.558;exitY=0.017;exitDx=0;exitDy=0;exitPerimeter=0;" edge="1" parent="1" source="cy30mTCbPtFmEh0cFf1_-3">
          <mxGeometry width="50" height="50" relative="1" as="geometry">
            <mxPoint x="370" y="70" as="sourcePoint" />
            <mxPoint x="420" y="20" as="targetPoint" />
          </mxGeometry>
        </mxCell>
        <mxCell id="cy30mTCbPtFmEh0cFf1_-57" value="Page acceuil 2" style="rounded=0;whiteSpace=wrap;html=1;" vertex="1" parent="1">
          <mxGeometry x="354" y="210" width="120" height="60" as="geometry" />
        </mxCell>
        <mxCell id="cy30mTCbPtFmEh0cFf1_-58" value="" style="endArrow=none;dashed=1;html=1;dashPattern=1 3;strokeWidth=2;rounded=0;" edge="1" parent="1">
          <mxGeometry width="50" height="50" relative="1" as="geometry">
            <mxPoint x="474" y="239.5" as="sourcePoint" />
            <mxPoint x="544" y="239.5" as="targetPoint" />
          </mxGeometry>
        </mxCell>
        <mxCell id="cy30mTCbPtFmEh0cFf1_-59" value="" style="shape=umlActor;verticalLabelPosition=bottom;verticalAlign=top;html=1;outlineConnect=0;" vertex="1" parent="1">
          <mxGeometry x="540" y="190" width="30" height="60" as="geometry" />
        </mxCell>
        <mxCell id="cy30mTCbPtFmEh0cFf1_-60" value="" style="shape=umlActor;verticalLabelPosition=bottom;verticalAlign=top;html=1;outlineConnect=0;" vertex="1" parent="1">
          <mxGeometry x="550" y="190" width="30" height="60" as="geometry" />
        </mxCell>
        <mxCell id="cy30mTCbPtFmEh0cFf1_-62" value="enseignant/aide labo" style="text;html=1;align=center;verticalAlign=middle;whiteSpace=wrap;rounded=0;" vertex="1" parent="1">
          <mxGeometry x="515" y="250" width="120" height="30" as="geometry" />
        </mxCell>
      </root>
    </mxGraphModel>
  </diagram>
</mxfile>
